<svg width="150" height="150" viewBox="0 0 150 150" fill="none" xmlns="http://www.w3.org/2000/svg">
<rect width="150" height="150" fill="#0D0D0D"/>
<path d="M75.0043 121.604C73.3201 122.048 70.0874 120.012 68.7438 119.084L46.6616 104.566C44.4039 103.082 41.9105 101.721 40.0382 99.7463C37.6747 97.254 36.0714 94.152 35.3531 90.7929C34.8734 88.5489 35.0206 86.2498 35.0234 83.9676L35.0415 54.2017C35.2775 53.9713 35.5311 53.8795 35.8048 53.7049L63.8631 35.3632L75.0355 28.3558L75.1818 28.3333C75.9934 28.7161 76.6971 29.2456 77.4381 29.7468L114.157 53.6963C114.423 53.8695 114.706 54.0138 114.956 54.2112L114.967 84.1136C114.967 85.7899 115.071 87.5378 114.911 89.205C114.544 93.0324 112.686 96.8624 110.109 99.6607C108.731 101.157 107.068 102.142 105.374 103.219L81.952 118.583C79.3029 120.366 78.2758 121.474 75.0043 121.604ZM80.8215 45.7296L80.8201 75.8231L94.6792 66.6869L103.844 60.7952C102.572 60.2148 101.401 59.278 100.255 58.4808L80.8215 45.7296ZM69.1238 45.8253C68.481 46.1366 67.8701 46.5434 67.2741 46.9254L48.1111 59.5646C47.5014 59.9863 46.8372 60.3681 46.2541 60.8222C47.4662 61.8434 48.9872 62.6138 50.3326 63.4473L55.4424 66.7837L67.6235 74.8301C68.0397 75.1248 68.8646 75.5364 69.1269 75.7931C69.1528 72.8021 69.1888 45.9197 69.1238 45.8253ZM103.736 75.78L91.5767 83.7165C86.2102 87.2579 82.8477 90.6857 81.2905 97.3592C80.6804 99.9738 80.8645 102.687 80.8681 105.355L80.8942 105.382C81.5087 105.078 82.0039 104.706 82.5161 104.358L97.3946 94.6371C102.34 91.5061 103.764 90.0276 103.766 83.6341L103.771 76.9251C103.777 76.5634 103.836 76.1268 103.771 75.773L103.736 75.78ZM46.2428 75.7625L46.2374 84.6243C46.2398 89.901 48.4344 92.0493 52.524 94.644L67.5206 104.399C68.0479 104.738 68.5941 105.056 69.0995 105.426C69.1431 103.783 69.2291 102.09 69.1172 100.454C68.7864 95.6164 66.8979 90.9469 63.4574 87.4855C61.6185 85.6354 59.3146 84.3434 57.1656 82.8933L46.2428 75.7625Z" fill="#F9F9F9"/>
</svg>
