<svg width="342" height="94" viewBox="0 0 342 94" fill="none" xmlns="http://www.w3.org/2000/svg">
<path d="M40.0043 93.271C38.3201 93.7146 35.0874 91.6783 33.7438 90.7509L11.6616 76.2325C9.40389 74.7483 6.91049 73.3874 5.03816 71.4129C2.67472 68.9207 1.07136 65.8187 0.353138 62.4595C-0.126595 60.2156 0.0206422 57.9165 0.0234354 55.6343L0.0415211 25.8684C0.277479 25.638 0.531061 25.5462 0.804839 25.3716L28.8631 7.02988L40.0355 0.0224938L40.1818 0C40.9934 0.382797 41.6971 0.912216 42.4381 1.4135L79.1573 25.3629C79.4233 25.5361 79.7065 25.6805 79.9558 25.8778L79.9671 55.7803C79.9669 57.4565 80.0706 59.2045 79.9108 60.8717C79.5441 64.699 77.6863 68.529 75.1091 71.3273C73.7312 72.8234 72.0683 73.8085 70.3744 74.8853L46.952 90.2501C44.3029 92.0327 43.2758 93.1403 40.0043 93.271ZM45.8215 17.3963L45.8201 47.4898L59.6792 38.3535L68.8442 32.4619C67.5716 31.8815 66.4014 30.9447 65.255 30.1474L45.8215 17.3963ZM34.1238 17.4919C33.481 17.8032 32.8701 18.21 32.2741 18.592L13.1111 31.2312C12.5014 31.6529 11.8372 32.0347 11.2541 32.4888C12.4662 33.51 13.9872 34.2805 15.3326 35.114L20.4424 38.4504L32.6235 46.4968C33.0397 46.7914 33.8646 47.203 34.1269 47.4598C34.1528 44.4687 34.1888 17.5864 34.1238 17.4919ZM68.7361 47.4467L56.5767 55.3832C51.2102 58.9246 47.8477 62.3524 46.2905 69.0258C45.6804 71.6405 45.8645 74.354 45.8681 77.0215L45.8942 77.0491C46.5087 76.745 47.0039 76.3726 47.5161 76.0243L62.3946 66.3038C67.3405 63.1728 68.764 61.6943 68.7656 55.3008L68.771 48.5917C68.7767 48.2301 68.8364 47.7935 68.771 47.4396L68.7361 47.4467ZM11.2428 47.4292L11.2374 56.291C11.2398 61.5676 13.4344 63.7159 17.524 66.3106L32.5206 76.0661C33.0479 76.4045 33.5941 76.7222 34.0995 77.0924C34.1431 75.4499 34.2291 73.7566 34.1172 72.1208C33.7864 67.2831 31.8979 62.6136 28.4574 59.1521C26.6185 57.3021 24.3146 56.01 22.1656 54.5599L11.2428 47.4292Z" fill="#F9F9F9"/>
<path d="M109.28 24.6707V61.1187H138.52V68.6667H100.236V24.6707H109.28ZM160.891 69.4147C157.537 69.4147 154.477 68.6894 151.711 67.2387C148.991 65.7427 146.815 63.68 145.183 61.0507C143.597 58.376 142.803 55.2934 142.803 51.8027C142.803 48.2214 143.619 45.116 145.251 42.4867C146.883 39.8574 149.082 37.8174 151.847 36.3667C154.658 34.8707 157.831 34.1227 161.367 34.1227C165.266 34.1227 168.394 34.916 170.751 36.5027C173.154 38.044 174.899 40.152 175.987 42.8267C177.075 45.5014 177.619 48.4934 177.619 51.8027C177.619 53.7974 177.302 55.8374 176.667 57.9227C176.033 59.9627 175.058 61.8667 173.743 63.6347C172.429 65.3574 170.706 66.7627 168.575 67.8507C166.445 68.8934 163.883 69.4147 160.891 69.4147ZM163.747 62.6147C166.422 62.6147 168.734 62.1614 170.683 61.2547C172.633 60.348 174.129 59.0787 175.171 57.4467C176.214 55.8147 176.735 53.9334 176.735 51.8027C176.735 49.4907 176.191 47.5414 175.103 45.9547C174.061 44.3227 172.565 43.0987 170.615 42.2827C168.711 41.4214 166.422 40.9907 163.747 40.9907C159.985 40.9907 157.061 41.988 154.975 43.9827C152.89 45.932 151.847 48.5387 151.847 51.8027C151.847 53.9787 152.346 55.8827 153.343 57.5147C154.341 59.1014 155.723 60.348 157.491 61.2547C159.305 62.1614 161.39 62.6147 163.747 62.6147ZM176.735 34.8707H185.575V68.6667H177.347C177.347 68.6667 177.279 68.236 177.143 67.3747C177.053 66.468 176.962 65.3347 176.871 63.9747C176.781 62.6147 176.735 61.2774 176.735 59.9627V34.8707ZM191.196 34.8707H217.444V41.7387H191.196V34.8707ZM199.9 25.6227H208.74V68.6667H199.9V25.6227ZM253.4 57.4467H261.968C261.605 59.7587 260.63 61.8214 259.044 63.6347C257.502 65.448 255.394 66.876 252.72 67.9187C250.045 68.9614 246.781 69.4827 242.928 69.4827C238.621 69.4827 234.813 68.8027 231.504 67.4427C228.194 66.0374 225.61 64.02 223.752 61.3907C221.893 58.7614 220.964 55.588 220.964 51.8707C220.964 48.1534 221.87 44.98 223.684 42.3507C225.497 39.676 228.013 37.636 231.232 36.2307C234.496 34.8254 238.304 34.1227 242.656 34.1227C247.098 34.1227 250.793 34.8254 253.74 36.2307C256.686 37.636 258.862 39.7667 260.268 42.6227C261.718 45.4334 262.33 49.0374 262.104 53.4347H229.872C230.098 55.1574 230.733 56.7214 231.776 58.1267C232.864 59.532 234.314 60.6427 236.128 61.4587C237.986 62.2747 240.185 62.6827 242.724 62.6827C245.534 62.6827 247.869 62.2067 249.728 61.2547C251.632 60.2574 252.856 58.988 253.4 57.4467ZM242.248 40.8547C238.984 40.8547 236.332 41.58 234.292 43.0307C232.252 44.436 230.937 46.1814 230.348 48.2667H253.332C253.105 46 252.017 44.2094 250.068 42.8947C248.164 41.5347 245.557 40.8547 242.248 40.8547ZM268.682 34.8707H277.522V68.6667H268.682V34.8707ZM293.23 34.1227C295.315 34.1227 297.242 34.3947 299.01 34.9387C300.778 35.4827 302.319 36.3214 303.634 37.4547C304.948 38.588 305.968 40.0387 306.694 41.8067C307.419 43.5294 307.782 45.592 307.782 47.9947V68.6667H298.942V49.5587C298.942 46.7027 298.239 44.6174 296.834 43.3027C295.474 41.9427 293.23 41.2627 290.102 41.2627C287.744 41.2627 285.614 41.716 283.71 42.6227C281.806 43.5294 280.264 44.6854 279.086 46.0907C277.907 47.4507 277.227 48.8787 277.046 50.3747L276.978 46.9067C277.204 45.32 277.726 43.7787 278.542 42.2827C279.358 40.7867 280.446 39.4267 281.806 38.2027C283.211 36.9334 284.866 35.936 286.77 35.2107C288.674 34.4854 290.827 34.1227 293.23 34.1227ZM313.45 34.8707H339.698V41.7387H313.45V34.8707ZM322.154 25.6227H330.994V68.6667H322.154V25.6227Z" fill="white"/>
</svg>
